<svg data-v-0dd9719b="" version="1.0" xmlns="http://www.w3.org/2000/svg" xmlns:xlink="http://www.w3.org/1999/xlink" width="100%" height="100%" viewBox="0 0 340.000000 250.000000" preserveAspectRatio="xMidYMid meet" color-interpolation-filters="sRGB" style="margin: auto;"> <rect data-v-0dd9719b="" x="0" y="0" width="100%" height="100%" fill="#ffffff" fill-opacity="1" class="background"></rect> <rect data-v-0dd9719b="" x="0" y="0" width="100%" height="100%" fill="url(#watermark)" fill-opacity="1" class="watermarklayer"></rect> <g data-v-0dd9719b="" fill="#333" class="icon-text-wrapper icon-svg-group iconsvg" transform="translate(71.87139892585668,103.93583869934082)"><g class="iconsvg-imagesvg" transform="translate(0,0)"><g><rect fill="#333" fill-opacity="0" stroke-width="2" x="0" y="0" width="60" height="42.12832287146649" class="image-rect"></rect> <svg x="0" y="0" width="60" height="42.12832287146649" filtersec="colorsb6824695807" class="image-svg-svg primary" style="overflow: visible;"><svg xmlns="http://www.w3.org/2000/svg" viewBox="-0.0019837021827697754 0.015816323459148407 185.19198608398438 130.0301055908203"><path d="M127.48 46.51A63.78 63.78 0 0 0 93.85 6.85 67.63 67.63 0 0 0 69.1.12a64.81 64.81 0 0 0-25.27 3.6A64.1 64.1 0 0 0 .22 63.34C-.2 84.77.13 106.2 0 127.64c0 1.91.48 2.4 2.4 2.39 20-.08 40-.14 60 0A69.63 69.63 0 0 0 96 122.2c.33-.33 1-.34 1.07-.91a4.56 4.56 0 0 0 1.79-.75 55.39 55.39 0 0 0 11.48-8.76A64.9 64.9 0 0 0 129 77.24a64.17 64.17 0 0 0-1.52-30.73z" fill="#0f54ff"></path><circle cx="121.45" cy="65.01" r="63.74" fill="#1eaaff" opacity=".4"></circle></svg></svg> <!----></g></g> <g transform="translate(61,1.464111328125)"><g data-gra="path-name" fill-rule="" class="tp-name iconsvg-namesvg" transform="translate(0,0)"><g transform="scale(0.7599999999999998)"><g><path d="M21.06-30.02L27.4-30.02 27.4 0 21.06 0 21.06-12.42 9.45-12.42 9.45 0 3.06 0 3.06-30.02 9.45-30.02 9.45-17.77 21.06-17.77 21.06-30.02ZM39.91 0L33.52 0 33.52-30.02 39.91-30.02 39.91 0ZM45.85-30.02L55.17-30.02 62.64-6.57 70.52-30.02 79.83-30.02 79.83 0 73.75 0 73.75-22.5 65.92 0 59.36 0 51.93-22.5 51.93 0 45.85 0 45.85-30.02ZM97.74-30.02L108.5-30.02 108.5-24.66 100.17-24.66Q96.93-24.66 95.45-24.21 93.96-23.76 92.97-22.45L92.97-22.45Q92.3-21.55 92.05-20.65 91.8-19.75 91.62-17.59L91.62-17.59 108.5-17.59 108.5-12.24 91.62-12.24Q91.98-8.37 93.92-6.86 95.85-5.35 100.48-5.35L100.48-5.35 108.5-5.35 108.5 0 100.17 0Q96.8 0 94.23-0.4L94.23-0.4Q90.18-1.08 87.8-3.96L87.8-3.96Q84.38-8.1 84.38-15.16L84.38-15.16Q84.38-22.99 89.19-27.36L89.19-27.36Q90.86-28.84 92.72-29.43 94.59-30.02 97.74-30.02L97.74-30.02ZM113.53 0L113.53-30.02 126.27-30.02Q131.04-30.02 133.65-29.07L133.65-29.07Q138.47-27.31 140.08-22.63L140.08-22.63Q141.3-19.04 141.3-14.94L141.3-14.94Q141.3-10.89 140.13-7.29L140.13-7.29Q138.96-3.6 136.26-1.84L136.26-1.84Q134.55-0.77 132.5-0.38 130.45 0 126.27 0L126.27 0 113.53 0ZM126.27-24.66L119.92-24.66 119.92-5.35 126.27-5.35Q130.45-5.35 132.07-7.2L132.07-7.2Q133.06-8.37 133.67-10.48 134.28-12.6 134.28-14.98L134.28-14.98Q134.28-17.64 133.56-19.84 132.84-22.05 131.67-23.13L131.67-23.13Q129.96-24.66 126.27-24.66L126.27-24.66ZM152.14 0L145.75 0 145.75-30.02 152.14-30.02 152.14 0ZM171.85-5.35L181.03-5.35 181.03 0 170.55 0Q167.58 0 166-0.32L166-0.32Q160.47-1.4 158.13-6.48L158.13-6.48Q156.6-9.9 156.6-14.94L156.6-14.94Q156.6-20.97 158.94-24.75L158.94-24.75Q160.65-27.49 163.51-28.75 166.37-30.02 170.87-30.02L170.87-30.02 181.03-30.02 181.03-24.66 171.59-24.66Q167.31-24.66 165.33-22.36L165.33-22.36Q163.66-20.47 163.66-15.52L163.66-15.52Q163.66-8.87 166.23-6.79L166.23-6.79Q168.03-5.35 171.85-5.35L171.85-5.35Z" transform="translate(-3.059999942779541, 30.020000457763672)"></path></g> <!----> <!----> <!----> <!----> <!----> <!----> <!----></g></g> <g data-gra="path-slogan" fill-rule="" class="tp-slogan iconsvg-slogansvg" fill="#333" transform="translate(36.644046783447266,27.815200805664062)"><!----> <!----> <g transform="scale(1, 1)"><g transform="scale(1.1600000000000001)"><path d="M7.17-6.09L7.17-6.09L6.09-6.09Q6-7.73 3.94-7.83L3.94-7.83Q2.02-7.78 2.02-6.33L2.02-6.33Q2.02-5.39 3.05-5.25L3.05-5.25L5.48-4.69Q7.41-4.22 7.41-2.34L7.41-2.34Q7.36 0.05 4.03 0.14L4.03 0.14Q2.20 0.14 1.45-0.61L1.45-0.61Q0.52-1.31 0.56-2.77L0.56-2.77L1.69-2.77Q1.73-0.80 4.03-0.75L4.03-0.75Q6.28-0.80 6.33-2.20L6.33-2.20Q6.52-3.38 4.45-3.75L4.45-3.75L2.67-4.13Q0.84-4.64 0.84-6.19L0.84-6.19Q0.98-8.72 3.84-8.81L3.84-8.81Q7.08-8.81 7.17-6.09ZM9.86-8.58L11.03-8.58L11.03-1.03L15.39-1.03L15.39 0L9.86 0L9.86-8.58ZM24.31-4.27L24.31-4.27Q24.13-7.64 21.31-7.83L21.31-7.83Q18.45-7.69 18.31-4.27L18.31-4.27Q18.45-0.94 21.31-0.80L21.31-0.80Q24.13-0.98 24.31-4.27ZM25.48-4.27L25.48-4.27Q25.20 0 21.31 0.14L21.31 0.14Q17.38 0 17.09-4.27L17.09-4.27Q17.33-8.72 21.31-8.81L21.31-8.81Q25.20-8.67 25.48-4.27ZM34.27-3.61L31.64-3.61L31.64-4.59L35.39-4.59L35.39 0L34.64 0L34.36-1.08Q33.38 0.09 31.55 0.14L31.55 0.14Q29.81 0.14 28.88-0.75L28.88-0.75Q27.47-2.06 27.52-4.36L27.52-4.36Q27.84-8.63 31.59-8.81L31.59-8.81Q34.78-8.63 35.25-6L35.25-6L34.13-6Q33.66-7.78 31.55-7.83L31.55-7.83Q28.88-7.64 28.73-4.31L28.73-4.31Q28.73-0.75 31.59-0.75L31.59-0.75Q32.63-0.75 33.38-1.31L33.38-1.31Q34.31-2.06 34.27-3.61L34.27-3.61ZM43.84 0L43-2.48L39.53-2.48L38.64 0L37.47 0L40.70-8.58L42.02-8.58L45.11 0L43.84 0ZM41.27-7.31L39.91-3.52L42.58-3.52L41.31-7.31L41.27-7.31ZM48.55-8.58L52.86-1.64L52.86-8.58L53.98-8.58L53.98 0L52.67 0L48.31-6.94L48.27-6.94L48.27 0L47.14 0L47.14-8.58L48.55-8.58Z" transform="translate(-0.5602678571428572, 8.8125)"></path></g></g></g></g></g><defs v-gra="od"></defs></svg>